<?xml version="1.0" encoding="utf-8"?>
<!-- Generator: Adobe Illustrator 16.0.0, SVG Export Plug-In . SVG Version: 6.00 Build 0)  -->
<!DOCTYPE svg PUBLIC "-//W3C//DTD SVG 1.1//EN" "http://www.w3.org/Graphics/SVG/1.1/DTD/svg11.dtd">
<svg version="1.1" id="Layer_1" xmlns="http://www.w3.org/2000/svg" xmlns:xlink="http://www.w3.org/1999/xlink" x="0px" y="0px"
	 width="24px" height="24px" viewBox="0 0 24 24" enable-background="new 0 0 24 24" xml:space="preserve">
<path fill="none" d="M0,0h24v24H0V0z"/>
<path fill="#FFFFFF" d="M22,6.92l-1.41-1.41l-2.85,3.21C15.68,6.4,12.83,5,9.61,5C6.72,5,4.07,6.16,2,8l1.42,1.42
	C5.12,7.93,7.27,7,9.61,7c2.74,0,5.09,1.26,6.77,3.24l-2.88,3.24l-4-4L2,16.99l1.5,1.5l6-6.01l4,4l4.05-4.55
	c0.75,1.35,1.25,2.9,1.44,4.55H21c-0.221-2.301-0.95-4.391-2.04-6.141L22,6.92z"/>
</svg>
