<?xml version="1.0" encoding="utf-8"?>
<!-- Generator: Adobe Illustrator 16.0.0, SVG Export Plug-In . SVG Version: 6.00 Build 0)  -->
<!DOCTYPE svg PUBLIC "-//W3C//DTD SVG 1.1//EN" "http://www.w3.org/Graphics/SVG/1.1/DTD/svg11.dtd">
<svg version="1.1" id="Layer_1" xmlns="http://www.w3.org/2000/svg" xmlns:xlink="http://www.w3.org/1999/xlink" x="0px" y="0px"
	 width="24px" height="24px" viewBox="0 0 24 24" enable-background="new 0 0 24 24" xml:space="preserve">
<g>
	<rect fill="none" width="24" height="24"/>
</g>
<g>
	<g>
		<g>
			<path fill="#FFFFFF" d="M16.67,13.13C18.04,14.061,19,15.32,19,17v3h4v-3C23,14.82,19.43,13.53,16.67,13.13z"/>
		</g>
		<g>
			<circle fill="#FFFFFF" cx="9" cy="8" r="4"/>
		</g>
		<g>
			<path fill="#FFFFFF" d="M15,12c2.21,0,4-1.79,4-4s-1.79-4-4-4c-0.471,0-0.91,0.1-1.33,0.24C14.5,5.27,15,6.58,15,8
				s-0.5,2.73-1.33,3.76C14.09,11.9,14.529,12,15,12z"/>
		</g>
		<g>
			<path fill="#FFFFFF" d="M9,13c-2.67,0-8,1.34-8,4v3h16v-3C17,14.34,11.67,13,9,13z"/>
		</g>
	</g>
</g>
</svg>
