<?xml version="1.0" encoding="utf-8"?>
<!-- Generator: Adobe Illustrator 16.0.0, SVG Export Plug-In . SVG Version: 6.00 Build 0)  -->
<!DOCTYPE svg PUBLIC "-//W3C//DTD SVG 1.1//EN" "http://www.w3.org/Graphics/SVG/1.1/DTD/svg11.dtd">
<svg version="1.1" id="Layer_1" focusable="false" xmlns="http://www.w3.org/2000/svg" xmlns:xlink="http://www.w3.org/1999/xlink"
	 x="0px" y="0px" width="1000px" height="1000px" viewBox="0 0 1000 1000" enable-background="new 0 0 1000 1000"
	 xml:space="preserve">
<path fill="#FFFFFF" d="M812.5,875H648.438C635.547,875,625,864.453,625,851.563v-78.125C625,760.547,635.547,750,648.438,750H812.5
	c34.57,0,62.5-27.93,62.5-62.5v-375c0-34.57-27.93-62.5-62.5-62.5H648.438C635.547,250,625,239.453,625,226.563v-78.125
	C625,135.547,635.547,125,648.438,125H812.5c103.516,0,187.5,83.984,187.5,187.5v375C1000,791.016,916.016,875,812.5,875z
	 M720.703,482.422L392.578,154.297C363.281,125,312.5,145.508,312.5,187.5V375H46.875C20.898,375,0,395.898,0,421.875v187.5
	c0,25.977,20.898,46.875,46.875,46.875H312.5v187.5c0,41.992,50.781,62.5,80.078,33.203l328.125-328.125
	C738.867,530.469,738.867,500.781,720.703,482.422z"/>
</svg>
