<?xml version="1.0" encoding="utf-8"?>
<!-- Generator: Adobe Illustrator 16.0.0, SVG Export Plug-In . SVG Version: 6.00 Build 0)  -->
<!DOCTYPE svg PUBLIC "-//W3C//DTD SVG 1.1//EN" "http://www.w3.org/Graphics/SVG/1.1/DTD/svg11.dtd">
<svg version="1.1" id="Layer_1" focusable="false" xmlns="http://www.w3.org/2000/svg" xmlns:xlink="http://www.w3.org/1999/xlink"
	 x="0px" y="0px" width="1000px" height="1000px" viewBox="0 0 1000 1000" enable-background="new 0 0 1000 1000"
	 xml:space="preserve">
<path fill="#FFFFFF" d="M975,425H875V325c0-13.75-11.25-25-25-25h-50c-13.75,0-25,11.25-25,25v100H675c-13.75,0-25,11.25-25,25v50
	c0,13.75,11.25,25,25,25h100v100c0,13.75,11.25,25,25,25h50c13.75,0,25-11.25,25-25V525h100c13.75,0,25-11.25,25-25v-50
	C1000,436.25,988.75,425,975,425z M350,500c110.469,0,200-89.531,200-200s-89.531-200-200-200s-200,89.531-200,200
	S239.531,500,350,500z M490,550h-26.094c-34.688,15.938-73.281,25-113.906,25s-79.063-9.063-113.906-25H210
	C94.063,550,0,644.063,0,760v65c0,41.406,33.594,75,75,75h550c41.406,0,75-33.594,75-75v-65C700,644.063,605.938,550,490,550z"/>
</svg>
