<?xml version="1.0" encoding="utf-8"?>
<!-- Generator: Adobe Illustrator 16.0.0, SVG Export Plug-In . SVG Version: 6.00 Build 0)  -->
<svg version="1.2" baseProfile="tiny" id="Layer_1" focusable="false"
	 xmlns="http://www.w3.org/2000/svg" xmlns:xlink="http://www.w3.org/1999/xlink" x="0px" y="0px" width="1000px" height="1000px"
	 viewBox="0 0 1000 1000" xml:space="preserve">
<g>
	<polygon fill="#FFFFFF" points="834,728 834,562 728,562 728,728 562,728 562,834 728,834 728,1000 834,1000 834,834 1000,834 
		1000,728 	"/>
	<path fill="#FFFFFF" d="M140.422,499.838c48.052,0,90.584-21.104,119.805-53.734c29.221,32.63,71.916,53.734,119.805,53.734
		c48.052,0,90.585-21.104,119.806-53.734c29.221,32.63,71.915,53.734,119.805,53.734c48.053,0,90.585-21.104,119.806-53.734
		c29.383,32.63,71.915,53.734,119.805,53.734c7.63,0,14.936-0.487,22.24-1.461c101.948-13.637,150.325-134.416,95.779-221.429
		L871.916,108.766c-9.416-15.097-26.137-24.351-43.994-24.351H172.078c-17.857,0-34.578,9.253-43.994,24.351L22.727,276.948
		c-54.383,86.851-6.168,207.63,95.455,221.429C125.487,499.351,132.955,499.838,140.422,499.838z"/>
	<path fill="#FFFFFF" d="M188.312,545.779c-15.584,3.571-31.656,6.169-47.89,6.169c-9.74,0-19.643-0.649-29.221-1.948
		c-9.091-1.299-18.02-3.409-26.623-5.844v319.48c0,28.733,23.214,51.947,51.948,51.947H534.5V707.792H188.312V545.779z"/>
</g>
</svg>
