<?xml version="1.0" encoding="utf-8"?>
<!-- Generator: Adobe Illustrator 16.0.0, SVG Export Plug-In . SVG Version: 6.00 Build 0)  -->
<!DOCTYPE svg PUBLIC "-//W3C//DTD SVG 1.1//EN" "http://www.w3.org/Graphics/SVG/1.1/DTD/svg11.dtd">
<svg version="1.1" id="Layer_1" focusable="false" xmlns="http://www.w3.org/2000/svg" xmlns:xlink="http://www.w3.org/1999/xlink"
	 x="0px" y="0px" width="24px" height="24px" viewBox="0 0 1000 1000" enable-background="new 0 0 1000 1000"
	 xml:space="preserve">
<path fill="#FFFFFF" d="M500,500c138.086,0,250-111.914,250-250S638.086,0,500,0S250,111.914,250,250S361.914,500,500,500z
	 M675,562.5h-32.617c-43.359,19.922-91.602,31.25-142.383,31.25s-98.828-11.328-142.383-31.25H325
	C180.078,562.5,62.5,680.078,62.5,825v81.25c0,51.758,41.992,93.75,93.75,93.75h687.5c51.758,0,93.75-41.992,93.75-93.75V825
	C937.5,680.078,819.922,562.5,675,562.5z"/>
</svg>
